# xmcd
#
# Track frame offsets:
#	150
#	17620
#	36033
#	53991
#	70896
#	92185
#	115015
#	136389
#	156914
#	173471
#
# Disc length: 2576 seconds
#
# Revision: 2
# Processed by: cddbd v1.5.1PL0 Copyright (c) Steve Scherf et al.
# Submitted via: audiograbber 1.81.02
#
DISCID=7b0a0e0a
DTITLE=Paul Colman - Let It Go (www.gerth.de)
DYEAR=2005
DGENRE=Christian Rock
TTITLE0=The One Thing
TTITLE1=Gloria (All God's Children)
TTITLE2=Always (You Are Forever)
TTITLE3=Holding On To You
TTITLE4=Sweet River
TTITLE5=I'm Coming Home
TTITLE6=Last Night In America
TTITLE7=I Owe It All
TTITLE8=Nothing Without You
TTITLE9=Symphony Of The Redeemed
EXTD=
EXTT0=
EXTT1=
EXTT2=
EXTT3=
EXTT4=
EXTT5=
EXTT6=
EXTT7=
EXTT8=
EXTT9=
PLAYORDER=
